<?xml version="1.0" encoding="UTF-8" standalone="no"?>
<!DOCTYPE svg PUBLIC "-//W3C//DTD SVG 1.1//EN"
 "http://www.w3.org/Graphics/SVG/1.1/DTD/svg11.dtd">
<!-- Generated by graphviz version 2.47.3 (20210619.1520)
 -->
<!-- Title: dependencies Pages: 1 -->
<svg width="661pt" height="174pt"
 viewBox="0.00 0.00 661.00 173.80" xmlns="http://www.w3.org/2000/svg" xmlns:xlink="http://www.w3.org/1999/xlink">
<g id="graph0" class="graph" transform="scale(1 1) rotate(0) translate(4 169.8)">
<title>dependencies</title>
<polygon fill="white" stroke="transparent" points="-4,4 -4,-169.8 657,-169.8 657,4 -4,4"/>
<text text-anchor="middle" x="326.5" y="-8.2" font-family="sans-serif" font-size="14.00">dependencies</text>
<g id="clust1" class="cluster">
<title>cluster_AppModule</title>
<polygon fill="none" stroke="black" stroke-dasharray="1,5" points="8,-32.8 8,-157.8 645,-157.8 645,-32.8 8,-32.8"/>
</g>
<g id="clust6" class="cluster">
<title>cluster_AppModule_providers</title>
<polygon fill="none" stroke="black" points="507,-40.8 507,-92.8 637,-92.8 637,-40.8 507,-40.8"/>
</g>
<g id="clust3" class="cluster">
<title>cluster_AppModule_imports</title>
<polygon fill="none" stroke="black" points="16,-40.8 16,-92.8 499,-92.8 499,-40.8 16,-40.8"/>
</g>
<!-- BooksModule -->
<g id="node1" class="node">
<title>BooksModule</title>
<polygon fill="#8dd3c7" stroke="black" points="490.83,-84.8 487.83,-88.8 466.83,-88.8 463.83,-84.8 395.17,-84.8 395.17,-48.8 490.83,-48.8 490.83,-84.8"/>
<text text-anchor="middle" x="443" y="-62.6" font-family="Times,serif" font-size="14.00">BooksModule</text>
</g>
<!-- AppModule -->
<g id="node5" class="node">
<title>AppModule</title>
<polygon fill="#8dd3c7" stroke="black" points="355.66,-149.8 352.66,-153.8 331.66,-153.8 328.66,-149.8 272.34,-149.8 272.34,-113.8 355.66,-113.8 355.66,-149.8"/>
<text text-anchor="middle" x="314" y="-127.6" font-family="Times,serif" font-size="14.00">AppModule</text>
</g>
<!-- BooksModule&#45;&gt;AppModule -->
<g id="edge1" class="edge">
<title>BooksModule&#45;&gt;AppModule</title>
<path fill="none" stroke="black" d="M443,-84.82C443,-102.17 443,-125.8 443,-125.8 443,-125.8 365.88,-125.8 365.88,-125.8"/>
<polygon fill="black" stroke="black" points="365.88,-122.3 355.88,-125.8 365.88,-129.3 365.88,-122.3"/>
</g>
<!-- BooksUsersModule -->
<g id="node2" class="node">
<title>BooksUsersModule</title>
<polygon fill="#8dd3c7" stroke="black" points="377.7,-84.8 374.7,-88.8 353.7,-88.8 350.7,-84.8 250.3,-84.8 250.3,-48.8 377.7,-48.8 377.7,-84.8"/>
<text text-anchor="middle" x="314" y="-62.6" font-family="Times,serif" font-size="14.00">BooksUsersModule</text>
</g>
<!-- BooksUsersModule&#45;&gt;AppModule -->
<g id="edge2" class="edge">
<title>BooksUsersModule&#45;&gt;AppModule</title>
<path fill="none" stroke="black" d="M314,-84.91C314,-84.91 314,-103.79 314,-103.79"/>
<polygon fill="black" stroke="black" points="310.5,-103.79 314,-113.79 317.5,-103.79 310.5,-103.79"/>
</g>
<!-- LoginModule -->
<g id="node3" class="node">
<title>LoginModule</title>
<polygon fill="#8dd3c7" stroke="black" points="232.49,-84.8 229.49,-88.8 208.49,-88.8 205.49,-84.8 139.51,-84.8 139.51,-48.8 232.49,-48.8 232.49,-84.8"/>
<text text-anchor="middle" x="186" y="-62.6" font-family="Times,serif" font-size="14.00">LoginModule</text>
</g>
<!-- LoginModule&#45;&gt;AppModule -->
<g id="edge3" class="edge">
<title>LoginModule&#45;&gt;AppModule</title>
<path fill="none" stroke="black" d="M186,-84.82C186,-102.17 186,-125.8 186,-125.8 186,-125.8 262.09,-125.8 262.09,-125.8"/>
<polygon fill="black" stroke="black" points="262.09,-129.3 272.09,-125.8 262.09,-122.3 262.09,-129.3"/>
</g>
<!-- PersonModule -->
<g id="node4" class="node">
<title>PersonModule</title>
<polygon fill="#8dd3c7" stroke="black" points="121.65,-84.8 118.65,-88.8 97.65,-88.8 94.65,-84.8 24.35,-84.8 24.35,-48.8 121.65,-48.8 121.65,-84.8"/>
<text text-anchor="middle" x="73" y="-62.6" font-family="Times,serif" font-size="14.00">PersonModule</text>
</g>
<!-- PersonModule&#45;&gt;AppModule -->
<g id="edge4" class="edge">
<title>PersonModule&#45;&gt;AppModule</title>
<path fill="none" stroke="black" d="M73,-85.08C73,-106.12 73,-137.8 73,-137.8 73,-137.8 262.3,-137.8 262.3,-137.8"/>
<polygon fill="black" stroke="black" points="262.3,-141.3 272.3,-137.8 262.3,-134.3 262.3,-141.3"/>
</g>
<!-- AppService -->
<g id="node6" class="node">
<title>AppService</title>
<ellipse fill="#fdb462" stroke="black" cx="572" cy="-66.8" rx="56.74" ry="18"/>
<text text-anchor="middle" x="572" y="-62.6" font-family="Times,serif" font-size="14.00">AppService</text>
</g>
<!-- AppService&#45;&gt;AppModule -->
<g id="edge5" class="edge">
<title>AppService&#45;&gt;AppModule</title>
<path fill="none" stroke="black" d="M572,-85.08C572,-106.12 572,-137.8 572,-137.8 572,-137.8 365.74,-137.8 365.74,-137.8"/>
<polygon fill="black" stroke="black" points="365.74,-134.3 355.74,-137.8 365.74,-141.3 365.74,-134.3"/>
</g>
</g>
</svg>
